<svg id="Layer_1" data-name="Layer 1" xmlns="http://www.w3.org/2000/svg" viewBox="0 0 128 128"><defs><style>.cls-1{fill:#656e70;}.cls-2{fill:#5e6668;}.cls-3{fill:#787f80;}.cls-4{fill:#333;}.cls-11,.cls-5{fill:none;}.cls-5{stroke:#333;stroke-linejoin:round;stroke-width:4px;}.cls-6{fill:#222;}.cls-7{fill:#777;}.cls-8{fill:#f5d4cb;}.cls-9{fill:#f4cfc5;}.cls-10{fill:#f0c2b6;}.cls-11{stroke:#c6a7a2;stroke-linecap:round;stroke-miterlimit:10;stroke-width:2px;}</style></defs><title>batman</title><path class="cls-1" d="M120.39,103.26a14.58,14.58,0,0,0-10.11-11.41L80.53,85.22v.07H47.45s0-.05,0-.07L17.7,91.85A14.58,14.58,0,0,0,7.59,103.26L7,106.89A140.89,140.89,0,0,0,64,119H64a140.89,140.89,0,0,0,57-12.11Z"/><path class="cls-2" d="M120.39,103.26a14.58,14.58,0,0,0-10.11-11.41L80.53,85.22v.07H60.17l31.64,30.88A141.06,141.06,0,0,0,121,106.89Z"/><path class="cls-3" d="M17.7,91.85A14.53,14.53,0,0,0,8.21,101a5.71,5.71,0,0,0,6.31-1.64,6.82,6.82,0,0,1,3.18-2l25.83-7a5.3,5.3,0,0,0,3.92-5.12Z"/><path class="cls-4" d="M88,78.17V44.76c0-10.33-.82-14.67-3.13-34.61a1.3,1.3,0,0,0-2.49-.36l-3.62,8.43s-5.53-3.7-14.76-3.7-14.77,3.7-14.77,3.7L45.57,9.79a1.31,1.31,0,0,0-2.5.36c-2.31,20-3.13,24.29-3.12,34.61V78.17L17.7,91.85l5.51-.58a30.3,30.3,0,0,1,17.64,3.5c21.74,11.77,24.44,11.76,46.35,0a30.37,30.37,0,0,1,17.54-3.47c1.24.13,2.93.32,5.54.58Z"/><path class="cls-5" d="M82.68,83l27.6,8.85a14.58,14.58,0,0,1,10.11,11.41l.59,3.63A140.89,140.89,0,0,1,64,119H64A140.89,140.89,0,0,1,7,106.89l.59-3.63A14.58,14.58,0,0,1,17.7,91.85L46,83"/><path class="cls-6" d="M88,78.17V44.76c0-10.33-.82-14.67-3.13-34.61a1.3,1.3,0,0,0-2.49-.36l-3.62,8.43s-5.53-3.7-14.76-3.7l-.65,0h0A120.63,120.63,0,0,0,56,57.69c0,1.67,0,3.46,0,5.31H48.27V73L64.66,89.38A14.67,14.67,0,0,0,83,91.3l12.54-8.46ZM64,66.59a1.69,1.69,0,0,1-1-.33L58.55,63h-.61l5.31-10.62a.37.37,0,0,1,.7.16Z"/><path class="cls-7" d="M57.92,56.06h-8a2,2,0,0,1-1.8-1.12l-2-4a2,2,0,0,1,.33-2.24,2,2,0,0,1,2.22-.49l10,4a2,2,0,0,1-.75,3.85Z"/><path class="cls-7" d="M78,56.06H70a2,2,0,0,1-.75-3.85l10-4a2,2,0,0,1,2.54,2.73l-2,4A2,2,0,0,1,78,56.06Z"/><path class="cls-8" d="M69.35,63l-4.41,3.26a1.67,1.67,0,0,1-2,0L58.55,63H46v3.84c0,4.63,5.88,11.74,11.89,15.25,1.62,1,4.31.91,6.11.91s4.48,0,6.1-.91c6-3.51,11.9-10.62,11.9-15.25V63Z"/><path class="cls-9" d="M64.94,66.26a1.67,1.67,0,0,1-2,0L58.55,63H56c0,.89,0,1.79,0,2.69,0,4.58,0,10,.21,15.32.56.38,1.11.75,1.67,1.08,1.62,1,4.31.91,6.11.91s4.48,0,6.1-.91c6-3.51,11.9-10.62,11.9-15.25V63H69.35Z"/><path class="cls-10" d="M64.94,66.26a1.67,1.67,0,0,1-2,0L58.55,63H46v2H59.82l2.8,2.06a4,4,0,0,0,4.84.12l3-2.18H80v1.84C80,70.51,74.64,77.09,69,80.36c-1.1.64-3.45.62-4.9.64H64a1.91,1.91,0,0,0-1.9,2L64,83c1.8,0,4.48,0,6.1-.91,6-3.51,11.9-10.62,11.9-15.25V63H69.35Z"/><polyline class="cls-11" points="55.95 72.6 60.74 71 67.14 71 71.94 72.6"/><line class="cls-11" x1="59.95" y1="75" x2="67.95" y2="75"/><path class="cls-4" d="M82.33,9.79l-3.62,8.43a12.79,12.79,0,0,0-1.3-.73A10.35,10.35,0,0,0,79.63,24a26.84,26.84,0,0,1,5.58,17.06V60.35A2.65,2.65,0,0,0,87.86,63H88V44.76c0-10.33-.82-14.67-3.13-34.61A1.3,1.3,0,0,0,82.33,9.79Z"/></svg>