<?xml version="1.0" encoding="UTF-8"?>
<svg width="136px" height="136px" viewBox="0 0 136 136" version="1.1" xmlns="http://www.w3.org/2000/svg" xmlns:xlink="http://www.w3.org/1999/xlink">
    <!-- Generator: Sketch 48.1 (47250) - http://www.bohemiancoding.com/sketch -->
    <title>Page 1</title>
    <desc>Created with Sketch.</desc>
    <defs>
        <polygon id="path-1" points="0 136 136 136 136 0 0 0"></polygon>
    </defs>
    <g id="400-b" stroke="none" stroke-width="1" fill="none" fill-rule="evenodd" transform="translate(-573.000000, -173.000000)" opacity="0.5">
        <g id="Group" transform="translate(358.000000, 173.000000)">
            <g id="Page-1" transform="translate(215.000000, 0.000000)">
                <path d="M5.33780873,96.0141932 C4.28416506,95.8838236 3.36081066,96.6660414 3.23618614,97.7651577 C3.01714911,99.6926226 3.00015486,100.922109 3.00015486,100.974256 C2.9869371,102.07939 3.82154374,102.987966 4.8638579,103 L4.88840516,103 C5.91938982,103 6.76154945,102.121509 6.77665546,101.022393 C6.77665546,101.012364 6.79364971,99.9393221 6.98625124,98.2465225 C7.11087576,97.1474062 6.37445814,96.1485742 5.33780873,96.0141932" id="Fill-1" fill="#000000"></path>
                <path d="M105.265583,105.211145 C103.73643,106.011152 102.088635,106.672958 100.365512,107.180991 C99.3655365,107.476857 98.7892791,108.553265 99.0717582,109.58685 C99.3109238,110.443304 100.064201,111 100.881508,111 C101.054761,111 101.226132,110.974696 101.399386,110.926033 C103.348492,110.349873 105.22227,109.596582 106.964224,108.685626 C107.892639,108.200951 108.267394,107.031111 107.796596,106.069546 C107.329564,105.111874 106.192114,104.722577 105.265583,105.211145" id="Fill-3" fill="#000000"></path>
                <path d="M74.6976895,56.3954719 C75.0701104,56.7966914 75.5918778,57 76.1117548,57 C76.5579037,57 77.0059431,56.8506672 77.3670213,56.5448047 C78.1458914,55.8845017 78.2158385,54.7474131 77.5220391,54.0061465 C76.3745289,52.7755 75.3763652,51.4117134 74.5577953,49.9525697 C74.0662753,49.0763638 72.9225461,48.7435135 72.0018913,49.2131023 C71.079346,49.6808919 70.7315011,50.7694023 71.2230211,51.6456082 C72.1833756,53.3584378 73.3497904,54.9543201 74.6976895,56.3954719" id="Fill-5" fill="#000000"></path>
                <path d="M75.3217423,106.067019 C74.3451314,105.793496 73.3355394,106.38071 73.068025,107.400206 C72.7950137,108.419701 73.3685206,109.471713 74.3451314,109.7548 C76.0803105,110.254028 77.9492468,110.667182 79.8878101,110.977047 C79.9812569,110.992349 80.0783683,111 80.1681505,111 C81.0586437,111 81.8391995,110.324799 81.9784535,109.376076 C82.1323659,108.333627 81.445257,107.358125 80.4429941,107.197454 C78.6418526,106.906716 76.9213318,106.527992 75.3217423,106.067019" id="Fill-7" fill="#000000"></path>
                <path d="M93.0886052,108.005088 C91.3646257,108.118948 89.5449698,108.081649 87.8733415,108.01294 C87.8498737,108.010977 87.8282111,108.010977 87.8029381,108.010977 C86.8371486,108.010977 86.0374387,108.841369 86.0013344,109.899481 C85.9634249,110.983113 86.7378618,111.892029 87.7361452,111.935218 C88.7633121,111.978406 89.8229728,112 90.9241534,112 C91.7310842,112 92.5253784,111.972517 93.3034257,111.923439 C94.2980987,111.86062 95.0562887,110.93011 94.9967166,109.846477 C94.9389497,108.766771 94.1013304,107.926564 93.0886052,108.005088" id="Fill-9" fill="#000000"></path>
                <path d="M64.8709534,101.412038 C64.092857,100.749941 62.9807831,100.90333 62.3767813,101.745999 C61.7727795,102.590609 61.9095682,103.809955 62.6823352,104.472052 C64.1443748,105.720522 65.7325442,106.83502 67.407761,107.780595 C67.6689029,107.92816 67.9478096,108 68.2231634,108 C68.8662477,108 69.4862377,107.617498 69.800674,106.951518 C70.2518988,105.998176 69.9108155,104.827371 69.0421188,104.334196 C67.5623144,103.49541 66.1588984,102.512944 64.8709534,101.412038" id="Fill-11" fill="#000000"></path>
                <path d="M110.899576,69.6686541 C111.247323,69.8936205 111.647817,70 112.044405,70 C112.648078,70 113.24589,69.7506186 113.626848,69.2797586 C114.261779,68.5002237 114.066416,67.4102699 113.193141,66.8452379 C111.53646,65.7762113 109.690277,64.8606501 107.693663,64.1299452 C106.707078,63.7672086 105.558342,64.1892386 105.146125,65.0803848 C104.737816,65.971531 105.214502,66.9899838 106.210856,67.3562082 C107.920285,67.9822776 109.494913,68.7600686 110.899576,69.6686541" id="Fill-13" fill="#000000"></path>
                <path d="M69.9648807,37.0029281 C68.9652046,36.9468434 68.1052291,37.7030823 68.0453574,38.6999427 C68.0163286,39.1793764 68,39.6624286 68,40.1400531 C68,41.5910187 68.1342578,43.0655036 68.400959,44.5164691 C68.5624312,45.390305 69.3244348,46 70.1844103,46 C70.2914537,46 70.4003114,45.9909541 70.5146119,45.9692439 C71.4997737,45.7883255 72.1511054,44.8457406 71.9696759,43.8633537 C71.7428892,42.6276811 71.6267743,41.377535 71.6304029,40.1418623 C71.6304029,39.7329867 71.6412887,39.3241112 71.6648745,38.9170448 C71.7265605,37.9201844 70.9645569,37.0626312 69.9648807,37.0029281" id="Fill-15" fill="#000000"></path>
                <path d="M76.263985,25.3907389 C75.4142617,24.7786208 74.1712944,24.8999891 73.4855875,25.6545829 C72.1339347,27.146181 71.0154617,28.7925676 70.1617863,30.5427328 C69.7309963,31.4345256 70.1894517,32.4687941 71.1933108,32.8557653 C71.4462517,32.954267 71.7130253,33 71.9758466,33 C72.7405976,33 73.4658265,32.604234 73.789907,31.9411061 C74.4993271,30.4811692 75.4340227,29.1091804 76.5604001,27.8638367 C77.2480831,27.1092429 77.1137082,26.002857 76.263985,25.3907389" id="Fill-17" fill="#000000"></path>
                <path d="M98.9313549,65.9801265 C99.0199859,65.9945799 99.1049993,66 99.1936303,66 C100.076323,66 100.850488,65.3514002 100.980721,64.4516712 C101.125425,63.4634146 100.439891,62.5492322 99.4504794,62.4046974 C97.6670065,62.1463415 95.773197,62.0108401 93.8196972,62 L93.8088445,62 C92.8121978,62 92.003666,62.802168 92.0000484,63.7958446 C91.9928132,64.7949413 92.7977275,65.6079494 93.7979917,65.6133695 C95.5850822,65.6242096 97.3124824,65.7470641 98.9313549,65.9801265" id="Fill-19" fill="#000000"></path>
                <path d="M79.9270726,24 C80.2770206,24 80.6288915,23.9111368 80.9442294,23.7243428 C82.4017055,22.8611005 84.0168505,22.1193649 85.7435175,21.515458 C86.7395236,21.1672594 87.2509862,20.1244772 86.8779646,19.18688 C86.5107114,18.2456557 85.4031834,17.7632556 84.4110228,18.1150812 C82.4363157,18.8042243 80.5808217,19.6565854 78.9022246,20.6485886 C78.0042808,21.1817677 77.7293216,22.3007184 78.2926996,23.1494524 C78.6618756,23.6989533 79.2848601,24 79.9270726,24" id="Fill-21" fill="#000000"></path>
                <path d="M86.5768131,64.9259268 C86.7513439,64.9753089 86.9296689,65 87.1023027,65 C87.9256329,65 88.6844627,64.4586955 88.9253911,63.6248967 C89.2156435,62.6182603 88.6332417,61.564141 87.6258952,61.2754453 C85.9431902,60.7911202 84.3344712,60.1092665 82.8414736,59.2526759 C81.9308779,58.7303646 80.7698684,59.0437514 80.2519671,59.9535228 C79.7302717,60.8632942 80.045186,62.0256743 80.9519876,62.5460864 C82.7086784,63.5565214 84.6019586,64.3561326 86.5768131,64.9259268" id="Fill-23" fill="#000000"></path>
                <path d="M46.6788456,80.4162578 C45.8805723,81.0539569 45.7718872,82.1920602 46.4296194,82.9598283 C47.4077853,84.0961251 48.3672124,85.395008 49.5477575,87.1690039 C49.9056687,87.7073449 50.5109323,88 51.1274392,88 C51.4741071,88 51.8245229,87.9078678 52.137461,87.7145709 C53.0088157,87.17623 53.2617896,86.0579984 52.7033731,85.2179697 C51.4385034,83.3157114 50.3928778,81.9084377 49.3172701,80.656524 C48.657664,79.8851429 47.4752451,79.7785586 46.6788456,80.4162578" id="Fill-25" fill="#000000"></path>
                <path d="M9.99251694,84.2210269 C9.06067532,83.7323592 7.91393961,84.0808664 7.41759132,85.0013801 C6.51427546,86.6946707 5.73076782,88.5527446 5.0917907,90.5244622 C4.77040043,91.5207383 5.31999681,92.5870947 6.31839855,92.9090851 C6.51237375,92.969695 6.70825066,93 6.90222585,93 C7.7066524,93 8.45212569,92.4886035 8.712661,91.6855216 C9.28127456,89.929727 9.97540149,88.2799998 10.7760246,86.7855856 C11.2704712,85.8612838 10.9186534,84.7134828 9.99251694,84.2210269" id="Fill-27" fill="#000000"></path>
                <path d="M53.8573492,91.2904264 C52.9876528,91.8320826 52.7383649,92.9496999 53.3006685,93.7874616 C54.4946267,95.5658995 55.5630037,97.0085106 56.6669932,98.3265408 C57.0362393,98.7706989 57.5779252,99 58.1271084,99 C58.5394645,99 58.9555692,98.868197 59.3023231,98.5991744 C60.1082917,97.9726587 60.2338729,96.8369861 59.5853493,96.0606122 C58.5675796,94.8436912 57.5685534,93.4985782 56.4495691,91.826666 C55.8872654,90.9889044 54.7270455,90.7469646 53.8573492,91.2904264" id="Fill-29" fill="#000000"></path>
                <path d="M113.77017,97.8147012 C112.852809,99.2318123 111.77429,100.551062 110.56649,101.736692 C109.851019,102.442425 109.806744,103.633702 110.470857,104.395893 C110.819738,104.796749 111.294357,105 111.770748,105 C112.199322,105 112.631438,104.834388 112.971464,104.501282 C114.3723,103.125574 115.620832,101.595546 116.685184,99.9507185 C117.243038,99.0944297 117.039377,97.9219726 116.233587,97.3329211 C115.427796,96.7401057 114.322712,96.9621762 113.77017,97.8147012" id="Fill-31" fill="#000000"></path>
                <path d="M120.137023,84.0051482 C119.028373,83.9285497 118.111416,84.7164199 118.05213,85.7213192 C117.949367,87.3718344 117.62527,89.0259971 117.087743,90.6400368 C116.767599,91.6011656 117.350578,92.6224788 118.395989,92.919754 C118.589657,92.9744672 118.781348,93 118.975016,93 C119.82083,93 120.603406,92.4948147 120.866241,91.7124158 C121.494673,89.8193387 121.878056,87.8715484 121.996628,85.9292294 C122.059867,84.9225063 121.22591,84.0616851 120.137023,84.0051482" id="Fill-33" fill="#000000"></path>
                <path d="M119.155189,81 C119.332266,81 119.511187,80.9732004 119.691953,80.917687 C120.664031,80.6114062 121.215551,79.5432517 120.920423,78.5306107 C120.333856,76.5187284 119.483519,74.6159587 118.391545,72.8739864 C117.836335,71.9876862 116.690869,71.7292617 115.840532,72.3131096 C114.986505,72.8893004 114.74118,74.0742244 115.300078,74.9605246 C116.200219,76.4000446 116.902993,77.9735624 117.389954,79.6408788 C117.63159,80.467837 118.362032,81 119.155189,81" id="Fill-35" fill="#000000"></path>
                <path d="M37.4351883,73.0726641 C36.4163399,72.7879861 35.3650562,73.3648833 35.0750469,74.3640843 C34.7831296,75.3651706 35.3688721,76.4096185 36.3800887,76.6961818 C38.1125127,77.1882412 39.656049,77.8499762 41.0946477,78.7209778 C41.4056445,78.9113916 41.7509846,79 42.0886928,79 C42.7316739,79 43.3574834,78.6795016 43.7180871,78.0988338 C44.2694863,77.2089793 43.9871089,76.0495291 43.0884616,75.506567 C41.3732093,74.4696603 39.4728852,73.6514466 37.4351883,73.0726641" id="Fill-37" fill="#000000"></path>
                <path d="M16.3185413,75.225777 C14.5875095,76.1799715 12.9837594,77.3834098 11.5527489,78.8044714 C10.8308796,79.5205823 10.8145148,80.6961202 11.5127461,81.4345514 C11.8709533,81.8102771 12.3437141,82 12.8182932,82 C13.2746892,82 13.7310851,81.8251573 14.0838374,81.473612 C15.2766492,80.292494 16.6076527,79.2917988 18.0441181,78.4994268 C18.9296354,78.0120993 19.2587497,76.8849222 18.780534,75.9790884 C18.3041366,75.0751147 17.2058769,74.7328695 16.3185413,75.225777" id="Fill-39" fill="#000000"></path>
                <path d="M24.52615,72.3488718 C23.5384111,72.5068974 22.8654461,73.4477015 23.0228331,74.4509808 C23.1621296,75.3550347 23.932783,76 24.806552,76 C24.9006224,76 24.9965018,75.99265 25.0905722,75.9779499 C26.6825323,75.7225363 28.4626332,75.6361734 30.1378094,75.6876237 C31.0459503,75.6931362 31.9667545,74.9213828 31.9993173,73.905241 C32.026453,72.8909366 31.2413272,72.0438454 30.242734,72.0126078 C28.3504723,71.9629951 26.3406227,72.056708 24.52615,72.3488718" id="Fill-41" fill="#000000"></path>
                <path d="M93.0035902,20 C93.0937849,20 93.1839796,19.9944379 93.2781829,19.9814596 C94.2061858,19.8646548 95.160245,19.7700986 96.1463734,19.701499 C97.250757,19.6236292 98.0765394,18.7318343 97.994362,17.7121105 C97.908176,16.6923866 96.980173,15.9340829 95.8417159,16.0045366 C94.7734101,16.0805523 93.7351692,16.1806707 92.7289976,16.3104537 C91.6326312,16.449507 90.8669787,17.3857989 91.0193075,18.3999606 C91.1556016,19.3288363 92.0174618,20 93.0035902,20" id="Fill-43" fill="#000000"></path>
                <path d="M135.068525,66.0719456 L120.477909,66.0719456 L120.477909,42.9426939 L130.101903,42.9426939 C130.61794,42.9426939 131.033378,42.5282177 131.033378,42.0175238 C131.033378,41.5068299 130.61794,41.0923537 130.101903,41.0923537 L120.477909,41.0923537 L120.477909,34.9251701 C120.477909,34.4144762 120.058745,34 119.546434,34 C119.030397,34 118.614959,34.4144762 118.614959,34.9251701 L118.614959,41.0923537 L95.0151209,41.0923537 L95.0151209,35.6190476 C95.0151209,35.1083537 94.5996833,34.6938776 94.0836464,34.6938776 C93.5713354,34.6938776 93.1521719,35.1083537 93.1521719,35.6190476 L93.1521719,41.0923537 L76.9314745,41.0923537 C76.4154376,41.0923537 76,41.5068299 76,42.0175238 C76,42.5282177 76.4154376,42.9426939 76.9314745,42.9426939 L93.1521719,42.9426939 L93.1521719,56.4353741 C93.1521719,56.946068 93.5713354,57.3605442 94.0836464,57.3605442 C94.5996833,57.3605442 95.0151209,56.946068 95.0151209,56.4353741 L95.0151209,42.9426939 L118.614959,42.9426939 L118.614959,67.0748299 C118.614959,67.5855238 119.030397,68 119.546434,68 C119.67684,68 119.803521,67.9703946 119.915298,67.9222857 L135.068525,67.9222857 C135.584562,67.9222857 136,67.5078095 136,66.9971156 C136,66.4864218 135.584562,66.0719456 135.068525,66.0719456" id="Fill-45" fill="#000000"></path>
                <path d="M130.05584,93 L124.94416,93 C124.421095,93 124,93.448 124,94 C124,94.552 124.421095,95 124.94416,95 L130.05584,95 C130.578905,95 131,94.552 131,94 C131,93.448 130.578905,93 130.05584,93" id="Fill-47" fill="#000000"></path>
                <path d="M111.068493,117.943577 L93.7555068,117.943577 L93.7555068,116.621145 C93.7555068,116.105621 93.3400548,115.687225 92.824,115.687225 C92.3116712,115.687225 91.8924932,116.105621 91.8924932,116.621145 L91.8924932,117.943577 L68.6849315,117.943577 L68.6849315,112.185022 C68.6849315,111.669498 68.2676164,111.251101 67.7534247,111.251101 C67.2373699,111.251101 66.8219178,111.669498 66.8219178,112.185022 L66.8219178,117.943577 L43.5342466,117.943577 L43.5342466,94.2854978 L47.9589041,94.2854978 C48.4730959,94.2854978 48.890411,93.8671013 48.890411,93.3515771 C48.890411,92.8360529 48.4730959,92.4176564 47.9589041,92.4176564 L43.5342466,92.4176564 L43.5342466,83.9339207 C43.5342466,83.4183965 43.1169315,83 42.6027397,83 C42.0866849,83 41.6712329,83.4183965 41.6712329,83.9339207 L41.6712329,92.4176564 L18.0724384,92.4176564 L18.0724384,84.4008811 C18.0724384,83.8853568 17.6551233,83.4669604 17.1409315,83.4669604 C16.6248767,83.4669604 16.2094247,83.8853568 16.2094247,84.4008811 L16.2094247,92.4176564 L10.9315068,92.4176564 C10.4154521,92.4176564 10,92.8360529 10,93.3515771 C10,93.8671013 10.4154521,94.2854978 10.9315068,94.2854978 L16.2094247,94.2854978 L16.2094247,112.340053 C16.2094247,112.855577 16.6248767,113.273974 17.1409315,113.273974 C17.6551233,113.273974 18.0724384,112.855577 18.0724384,112.340053 L18.0724384,94.2854978 L41.6712329,94.2854978 L41.6712329,117.943577 L24.283726,117.943577 C23.7676712,117.943577 23.3522192,118.361974 23.3522192,118.877498 C23.3522192,119.393022 23.7676712,119.811419 24.283726,119.811419 L41.6712329,119.811419 L41.6712329,130.084546 C41.6712329,130.60007 42.0866849,131.018467 42.6027397,131.018467 C43.1169315,131.018467 43.5342466,130.60007 43.5342466,130.084546 L43.5342466,119.811419 L66.8219178,119.811419 L66.8219178,135.066079 C66.8219178,135.581604 67.2373699,136 67.7534247,136 C68.2676164,136 68.6849315,135.581604 68.6849315,135.066079 L68.6849315,119.811419 L91.8924932,119.811419 L91.8924932,130.396476 C91.8924932,130.912 92.3116712,131.330396 92.824,131.330396 C93.3400548,131.330396 93.7555068,130.912 93.7555068,130.396476 L93.7555068,119.811419 L111.068493,119.811419 C111.580822,119.811419 112,119.393022 112,118.877498 C112,118.361974 111.580822,117.943577 111.068493,117.943577" id="Fill-49" fill="#000000"></path>
                <mask id="mask-2" fill="white">
                    <use xlink:href="#path-1"></use>
                </mask>
                <g id="Clip-52"></g>
                <path d="M18.3388466,66.8882667 L41.9631902,66.8882667 L41.9631902,43.5549333 L18.3388466,43.5549333 L18.3388466,66.8882667 Z M16.473816,70 C16.473816,70.5152 16.8915828,70.9333333 17.4063313,70.9333333 C17.9210798,70.9333333 18.3388466,70.5152 18.3388466,70 L18.3388466,68.7549333 L41.9631902,68.7549333 L41.9631902,70.9333333 C41.9631902,71.4485333 42.3809571,71.8666667 42.8957055,71.8666667 C43.410454,71.8666667 43.8282209,71.4485333 43.8282209,70.9333333 L43.8282209,68.7549333 L67.1411043,68.7549333 L67.1411043,92.7117333 L62.7116564,92.7117333 C62.196908,92.7117333 61.7791411,93.1298667 61.7791411,93.6450667 C61.7791411,94.1602667 62.196908,94.5784 62.7116564,94.5784 L67.1411043,94.5784 L67.1411043,98 C67.1411043,98.5152 67.5588712,98.9333333 68.0736196,98.9333333 C68.5883681,98.9333333 69.006135,98.5152 69.006135,98 L69.006135,94.5784 L92.9400736,94.5784 L92.9400736,104.066667 C92.9400736,104.581867 93.3578405,105 93.872589,105 C94.3892025,105 94.8051043,104.581867 94.8051043,104.066667 L94.8051043,94.5784 L113.067485,94.5784 C113.582233,94.5784 114,94.1602667 114,93.6450667 C114,93.1298667 113.582233,92.7117333 113.067485,92.7117333 L94.8051043,92.7117333 L94.8051043,70.4666667 C94.8051043,69.9514667 94.3892025,69.5333333 93.872589,69.5333333 C93.3578405,69.5333333 92.9400736,69.9514667 92.9400736,70.4666667 L92.9400736,92.7117333 L69.006135,92.7117333 L69.006135,68.7549333 L82.2944785,68.7549333 C82.809227,68.7549333 83.2269939,68.3368 83.2269939,67.8216 C83.2269939,67.3064 82.809227,66.8882667 82.2944785,66.8882667 L69.006135,66.8882667 L69.006135,56.4666667 C69.006135,55.9514667 68.5883681,55.5333333 68.0736196,55.5333333 C67.5588712,55.5333333 67.1411043,55.9514667 67.1411043,56.4666667 L67.1411043,66.8882667 L43.8282209,66.8882667 L43.8282209,43.5549333 L62.4785276,43.5549333 C62.9932761,43.5549333 63.4110429,43.1368 63.4110429,42.6216 C63.4110429,42.1064 62.9932761,41.6882667 62.4785276,41.6882667 L43.8282209,41.6882667 L43.8282209,18.0450667 L67.1411043,18.0450667 L67.1411043,23.8 C67.1411043,24.3152 67.5588712,24.7333333 68.0736196,24.7333333 C68.5883681,24.7333333 69.006135,24.3152 69.006135,23.8 L69.006135,18.0450667 L75.3006135,18.0450667 C75.815362,18.0450667 76.2331288,17.6269333 76.2331288,17.1117333 C76.2331288,16.5965333 75.815362,16.1784 75.3006135,16.1784 L69.006135,16.1784 L69.006135,0.933333333 C69.006135,0.418133333 68.5883681,0 68.0736196,0 C67.5588712,0 67.1411043,0.418133333 67.1411043,0.933333333 L67.1411043,16.1784 L43.8282209,16.1784 L43.8282209,5.83333333 C43.8282209,5.31813333 43.410454,4.9 42.8957055,4.9 C42.3809571,4.9 41.9631902,5.31813333 41.9631902,5.83333333 L41.9631902,16.1784 L24.2453988,16.1784 C23.7306503,16.1784 23.3128834,16.5965333 23.3128834,17.1117333 C23.3128834,17.6269333 23.7306503,18.0450667 24.2453988,18.0450667 L41.9631902,18.0450667 L41.9631902,41.6882667 L18.3388466,41.6882667 L18.3388466,24.4216 C18.3388466,23.9064 17.9210798,23.4882667 17.4063313,23.4882667 C16.8915828,23.4882667 16.473816,23.9064 16.473816,24.4216 L16.473816,41.6882667 L6.21614724,41.6882667 C5.70139877,41.6882667 5.2836319,42.1064 5.2836319,42.6216 C5.2836319,43.1368 5.70139877,43.5549333 6.21614724,43.5549333 L16.473816,43.5549333 L16.473816,66.8882667 L0.932515337,66.8882667 C0.417766871,66.8882667 0,67.3064 0,67.8216 C0,68.3368 0.417766871,68.7549333 0.932515337,68.7549333 L16.473816,68.7549333 L16.473816,70 Z" id="Fill-51" fill="#000000" mask="url(#mask-2)"></path>
                <path d="M119,105 C118.446,105 118,105.425856 118,105.95057 L118,112.04943 C118,112.574144 118.446,113 119,113 C119.55,113 120,112.574144 120,112.04943 L120,105.95057 C120,105.425856 119.55,105 119,105" id="Fill-53" fill="#000000" mask="url(#mask-2)"></path>
                <path d="M107.210235,4.85473382 C108.337769,4.569268 109.49478,4.42558984 110.684954,4.42558984 C112.534698,4.42558984 113.949642,4.85473382 114.935312,5.71113128 C115.920983,6.56752874 116.412897,7.7831216 116.412897,9.35601936 C116.412897,10.6226558 116.147595,11.704023 115.613306,12.5982305 C115.079017,13.492438 113.787513,14.8271325 111.744319,16.602314 C110.27042,17.8973079 109.262641,19.1299153 108.720983,20.2944646 C108.179324,21.4590139 107.908495,22.9449486 107.908495,24.7503781 L107.908495,26 L110.819447,26 L110.819447,25.2362371 C110.819447,23.7692075 111.064483,22.5970962 111.55087,21.7180127 C112.040942,20.8389292 113.045036,19.734876 114.563153,18.4077435 C116.458956,16.7100726 117.689662,15.4793557 118.262641,14.7155929 C118.835619,13.95183 119.266735,13.1408046 119.559672,12.2862976 C119.85261,11.4299002 120,10.4373866 120,9.31064731 C120,6.67150635 119.202252,4.62787356 117.61044,3.17596794 C116.014944,1.72595281 113.780143,1 110.909724,1 C107.81085,1 104.840942,1.76565336 102,3.29317907 L103.330194,6.41817907 C104.789355,5.66197822 106.082702,5.14019964 107.210235,4.85473382" id="Fill-54" fill="#000000" mask="url(#mask-2)"></path>
                <path d="M109.490681,29 C107.831921,29 107,30.0036166 107,32.0108499 C107,33.074141 107.235513,33.8372514 107.704846,34.3019892 C108.175873,34.7667269 108.770586,35 109.490681,35 C110.27855,35 110.893595,34.7377939 111.335818,34.2133816 C111.779736,33.6907776 112,32.9566004 112,32.0108499 C112,31.0361664 111.783124,30.2911392 111.347679,29.7739602 C110.910539,29.2585895 110.292104,29 109.490681,29" id="Fill-55" fill="#000000" mask="url(#mask-2)"></path>
            </g>
        </g>
    </g>
</svg>