<?xml version="1.0" encoding="UTF-8"?>
<svg width="145px" height="117px" viewBox="0 0 145 117" version="1.1" xmlns="http://www.w3.org/2000/svg" xmlns:xlink="http://www.w3.org/1999/xlink">
    <!-- Generator: Sketch 51.3 (57544) - http://www.bohemiancoding.com/sketch -->
    <title>codebase_icon</title>
    <desc>Created with Sketch.</desc>
    <defs></defs>
    <g id="codebase_icon" stroke="none" stroke-width="1" fill="none" fill-rule="evenodd">
        <g id="icon_codebase_01" transform="translate(3.000000, 3.000000)">
            <path d="M5,0 L134,0 C136.761424,-5.07265313e-16 139,2.23857625 139,5 L139,106 C139,108.761424 136.761424,111 134,111 L5,111 C2.23857625,111 3.38176876e-16,108.761424 0,106 L0,5 C-3.38176876e-16,2.23857625 2.23857625,5.07265313e-16 5,0 Z" id="Rectangle-3" stroke="#363636" stroke-width="5"></path>
            <g id="Group" transform="translate(29.000000, 36.000000)" fill="#363636" fill-rule="nonzero" stroke="#000000" stroke-width="3">
                <path d="M28.5,48 L80.5,48 C81.3284271,48 82,48.6715729 82,49.5 L82,49.5 C82,50.3284271 81.3284271,51 80.5,51 L28.5,51 C27.6715729,51 27,50.3284271 27,49.5 L27,49.5 C27,48.6715729 27.6715729,48 28.5,48 Z" id="Rectangle"></path>
                <path d="M-1.58880712,11.9989205 L29.5780263,12.16791 C30.3624841,12.1721634 30.9970059,12.8077119 30.9999909,13.5921756 L30.9999909,13.5921756 C31.0029406,14.3673479 30.3769305,14.9981403 29.6017583,15.00109 C29.5974412,15.0011064 29.5931241,15.001103 29.5888071,15.0010795 L-1.57802634,14.83209 C-2.36248414,14.8278366 -2.99700589,14.1922881 -2.99999093,13.4078244 L-2.99999093,13.4078244 C-3.00294062,12.6326521 -2.37693052,12.0018597 -1.60175825,11.99891 C-1.59744122,11.9988936 -1.59312413,11.998897 -1.58880712,11.9989205 Z" id="Rectangle" transform="translate(14.000000, 13.500000) rotate(45.000000) translate(-14.000000, -13.500000) "></path>
                <path d="M-1.58880712,33.9989205 L29.5780263,34.16791 C30.3624841,34.1721634 30.9970059,34.8077119 30.9999909,35.5921756 L30.9999909,35.5921756 C31.0029406,36.3673479 30.3769305,36.9981403 29.6017583,37.00109 C29.5974412,37.0011064 29.5931241,37.001103 29.5888071,37.0010795 L-1.57802634,36.83209 C-2.36248414,36.8278366 -2.99700589,36.1922881 -2.99999093,35.4078244 L-2.99999093,35.4078244 C-3.00294062,34.6326521 -2.37693052,34.0018597 -1.60175825,33.99891 C-1.59744122,33.9988936 -1.59312413,33.998897 -1.58880712,33.9989205 Z" id="Rectangle" transform="translate(14.000000, 35.500000) scale(1, -1) rotate(45.000000) translate(-14.000000, -35.500000) "></path>
            </g>
            <path d="M135,17 L1,17" id="Line" stroke="#363636" stroke-width="5" stroke-linecap="square"></path>
            <circle id="Oval" fill="#363636" fill-rule="nonzero" cx="22.5" cy="8.5" r="2.5"></circle>
            <circle id="Oval" fill="#363636" fill-rule="nonzero" cx="15.5" cy="8.5" r="2.5"></circle>
            <circle id="Oval" fill="#363636" fill-rule="nonzero" cx="8.5" cy="8.5" r="2.5"></circle>
        </g>
    </g>
</svg>