<?xml version="1.0" encoding="UTF-8"?>
<svg width="18px" height="19px" viewBox="0 0 18 19" version="1.1" xmlns="http://www.w3.org/2000/svg" xmlns:xlink="http://www.w3.org/1999/xlink">
    <!-- Generator: Sketch 49.3 (51167) - http://www.bohemiancoding.com/sketch -->
    <title>Shape</title>
    <desc>Created with Sketch.</desc>
    <defs></defs>
    <g id="Post-Summit-Feature-Indicator" stroke="none" stroke-width="1" fill="none" fill-rule="evenodd">
        <g id="Feature-Indicator-presummit-3" transform="translate(-122.000000, -320.000000)" fill="#3F9C35" fill-rule="nonzero">
            <g id="Group-2" transform="translate(30.000000, 220.000000)">
                <g id="Group-4" transform="translate(92.000000, 28.000000)">
                    <path d="M17.4875876,88.2102535 L11.3075876,78.4702535 L11.3075876,73.5702535 L12.0975876,73.5702535 C12.5338926,73.5702535 12.8875876,73.2165585 12.8875876,72.7802535 C12.8821139,72.3478588 12.530017,72.0002189 12.0975876,72.0002535 L5.80758765,72.0002535 C5.59462318,71.9948603 5.38850697,72.0757052 5.23599902,72.2244475 C5.08349108,72.3731898 4.99751937,72.5772208 4.99758765,72.7902535 C4.99758765,73.2265585 5.3512827,73.5802535 5.78758765,73.5802535 L6.59758765,73.5802535 L6.59758765,78.4802535 L0.417587649,88.2102535 C-0.502412351,89.6702535 0.147587649,90.8602535 1.87758765,90.8602535 L15.9975876,90.8602535 C17.7575876,90.8702535 18.4075876,89.6802535 17.4875876,88.2102535 Z M7.91758765,79.3102535 L8.16758765,78.9302535 L8.16758765,73.5702535 L9.73758765,73.5702535 L9.73758765,78.9302535 L9.98758765,79.3102535 L14.4275876,86.3102535 L3.47758765,86.3102535 L7.91758765,79.3102535 Z" id="Shape"></path>
                </g>
            </g>
        </g>
    </g>
</svg>