<?xml version="1.0" encoding="UTF-8"?>
<svg width="18px" height="19px" viewBox="0 0 18 19" version="1.1" xmlns="http://www.w3.org/2000/svg" xmlns:xlink="http://www.w3.org/1999/xlink">
    <!-- Generator: Sketch 49.3 (51167) - http://www.bohemiancoding.com/sketch -->
    <title>Shape</title>
    <desc>Created with Sketch.</desc>
    <defs></defs>
    <g id="Post-Summit-Feature-Indicator" stroke="none" stroke-width="1" fill="none" fill-rule="evenodd">
        <g id="Feature-Indicator-presummit-3" transform="translate(-122.000000, -536.000000)" fill="#703FEC" fill-rule="nonzero">
            <g id="Group-2" transform="translate(30.000000, 220.000000)">
                <g id="Group-4" transform="translate(92.000000, 28.000000)">
                    <path d="M17.4875876,304.210254 L11.3075876,294.470254 L11.3075876,289.570254 L12.0975876,289.570254 C12.5338926,289.570254 12.8875876,289.216558 12.8875876,288.780254 C12.8821139,288.347859 12.530017,288.000219 12.0975876,288.000254 L5.80758765,288.000254 C5.59462318,287.99486 5.38850697,288.075705 5.23599902,288.224447 C5.08349108,288.37319 4.99751937,288.577221 4.99758765,288.790254 C4.99758765,289.226558 5.3512827,289.580254 5.78758765,289.580254 L6.59758765,289.580254 L6.59758765,294.480254 L0.417587649,304.210254 C-0.502412351,305.670254 0.147587649,306.860254 1.87758765,306.860254 L15.9975876,306.860254 C17.7575876,306.870254 18.4075876,305.680254 17.4875876,304.210254 Z M9.73758765,291.130254 L8.16758765,291.130254 L8.16758765,289.570254 L9.73758765,289.570254 L9.73758765,291.130254 Z" id="Shape"></path>
                </g>
            </g>
        </g>
    </g>
</svg>