<?xml version="1.0" encoding="UTF-8"?>
<svg width="18px" height="19px" viewBox="0 0 18 19" version="1.1" xmlns="http://www.w3.org/2000/svg" xmlns:xlink="http://www.w3.org/1999/xlink">
    <!-- Generator: Sketch 49.3 (51167) - http://www.bohemiancoding.com/sketch -->
    <title>Shape</title>
    <desc>Created with Sketch.</desc>
    <defs></defs>
    <g id="Post-Summit-Feature-Indicator" stroke="none" stroke-width="1" fill="none" fill-rule="evenodd">
        <g id="Feature-Indicator-presummit-3" transform="translate(-122.000000, -248.000000)" fill="#000000" fill-rule="nonzero">
            <g id="Group-2" transform="translate(30.000000, 220.000000)">
                <g id="Group-4" transform="translate(92.000000, 28.000000)">
                    <path d="M15.9975876,18.8702535 L1.87758765,18.8702535 C0.147587649,18.8702535 -0.502412351,17.6802535 0.417587649,16.2102535 L6.59758765,6.47025353 L6.59758765,1.57025353 L5.80758765,1.57025353 C5.59634668,1.57561921 5.39176082,1.49613403 5.23955061,1.34956123 C5.08734039,1.20298843 5.00019431,1.00154655 4.99758765,0.79025353 C4.99751937,0.577220794 5.08349108,0.373189787 5.23599902,0.224447469 C5.38850697,0.0757051508 5.59462318,-0.00513971534 5.80758765,0.00025352968 L12.0975876,0.00025352968 C12.3071087,0.00025352968 12.5080483,0.0834854336 12.656202,0.231639173 C12.8043557,0.379792912 12.8875876,0.580732503 12.8875876,0.79025353 C12.8875876,1.22655848 12.5338926,1.58025353 12.0975876,1.58025353 L11.3075876,1.58025353 L11.3075876,6.48025353 L17.4875876,16.2202535 C18.4075876,17.6802535 17.7575876,18.8702535 15.9975876,18.8702535 Z M1.60758765,17.2902535 L16.2975876,17.2902535 L9.99758765,7.31025353 L9.74758765,6.93025353 L9.74758765,1.57025353 L8.16758765,1.57025353 L8.16758765,6.93025353 L7.91758765,7.31025353 L1.60758765,17.2902535 Z" id="Shape"></path>
                </g>
            </g>
        </g>
    </g>
</svg>