<?xml version="1.0" encoding="utf-8"?>
<!-- Generator: Adobe Illustrator 21.1.0, SVG Export Plug-In . SVG Version: 6.00 Build 0)  -->
<svg version="1.1" id="Layer_1" xmlns="http://www.w3.org/2000/svg" xmlns:xlink="http://www.w3.org/1999/xlink" x="0px" y="0px"
	 viewBox="0 0 216 216" style="enable-background:new 0 0 216 216;" xml:space="preserve">
<style type="text/css">
	.st0{fill:#A30000;}
	.st1{fill:#CC0000;}
	.st2{fill:#820000;}
	.st3{fill:#FFFFFF;}
</style>
<path class="st0" d="M63.7,102.5l-20.9,7.6c0.3,3.4,0.8,6.7,1.7,9.9l19.9-7.2C63.6,109.4,63.4,106,63.7,102.5"/>
<path class="st0" d="M156.2,79.4c-1.5-3-3.2-5.9-5.1-8.7l-20.9,7.6c2.4,2.5,4.5,5.3,6.1,8.3L156.2,79.4z"/>
<path class="st1" d="M110.1,73.4c4.3,2,8.1,4.8,11.3,8.1l20.9-7.6c-5.8-8.1-13.7-14.9-23.4-19.4c-29.9-13.9-65.6-1-79.5,28.9
	c-4.5,9.7-6.2,20-5.4,29.9l20.9-7.6c0.3-4.5,1.5-9.1,3.5-13.4C67.5,72.8,90.7,64.4,110.1,73.4"/>
<path class="st1" d="M45.7,119.6l-19.9,7.2c1.8,7.2,5,14.1,9.3,20.3l20.9-7.6C50.7,134,47.1,127,45.7,119.6"/>
<path class="st0" d="M132.4,111.7c-0.3,4.5-1.5,9.1-3.5,13.4c-9.1,19.4-32.2,27.9-51.7,18.8c-4.4-2-8.2-4.8-11.3-8L45,143.5
	c5.8,8.1,13.7,14.9,23.3,19.4c29.9,13.9,65.6,1,79.5-29c4.5-9.7,6.2-20,5.4-29.9L132.4,111.7z"/>
<path class="st1" d="M137.6,86.1l-19.9,7.2c3.7,6.6,5.4,14.2,4.9,21.9l20.9-7.6C142.8,100.2,140.8,92.8,137.6,86.1"/>
<path class="st2" d="M63.6,106.7c0-1.4,0-2.8,0.1-4.2l-20.9,7.6c0.1,1.3,0.3,2.7,0.5,4L63.6,106.7z"/>
<path class="st2" d="M153.1,73.8c-0.7-1.1-1.3-2.1-2.1-3.2l-20.9,7.6c0.9,0.9,1.8,1.9,2.6,3L153.1,73.8z"/>
<path class="st0" d="M45,143.5c1.6,2.3,3.4,4.4,5.3,6.5l22.7-8.3c-2.7-1.7-5.1-3.6-7.2-5.8L45,143.5z M153.3,104.1l-20.9,7.6
	c-0.2,3-0.8,6-1.8,9l22.7-8.3C153.6,109.6,153.5,106.8,153.3,104.1"/>
</svg>
